<?xml version="1.0" encoding="UTF-8"?>
<svg id="Capa_1" data-name="Capa 1" xmlns="http://www.w3.org/2000/svg" viewBox="0 0 1170 337">
  <defs>
    <style>
      .cls-1 {
        fill: #fff;
      }

      .cls-2 {
        fill: none;
        opacity: .29;
      }

      .cls-3 {
        fill: #828282;
      }
    </style>
  </defs>
  <rect class="cls-3" width="1170" height="337"/>
  <g class="cls-2">
    <path class="cls-1" d="m9.59,221.07c-6.93-6.37-19.79-8.4-27.88-3.54-10.57,6.35-11.17,12.05-15.48,19.54-.77,1.34-1.75,3.46-3.45,4.23-14.43,6.55-25.71,7.42-26.03,20.63-.29,11.93-4.75,95.03-5.73,108.6-.06.85-.51,1.26-.77,1.29-.37.05-18.91-11.53-28.42-19.5-.48-.4-.02-1.61-.02-2.89-.03-15.29.53-72.91.55-73.97.01-.83-1.51-.28-2.46.22-3.02,1.6-16.77,7.22-23.25,10.07-.52.23-.57.85-.57,1.25,0,6.78-1.75,63.69-.29,71.04,1.31,6.6,79.74,61.86,81.03,61.05,1.13-.71,6.51-138.26,9.41-146.29,3.3-9.14,8.91-9.15,19.51-6.98,5.85,1.2,12.02,1.6,17.61-1.25,14.82-7.54,22.06-28.96,6.24-43.5Zm-16.66,36.25c-9.31,0-16.86-7.55-16.86-16.86s7.55-16.86,16.86-16.86,16.86,7.55,16.86,16.86-7.55,16.86-16.86,16.86Z"/>
    <path class="cls-1" d="m-1.1,279.73c-8.86,3.16-16.65,13.6-16.13,23.02.69,12.31,5.46,15.5,10.07,22.8.82,1.31,2.25,3.16,2.14,5.02-.93,15.81-5.42,26.21,6.13,32.65,10.42,5.81,81.87,48.48,93.42,55.67.72.45.88,1.03.78,1.28-.13.35-19.01,11.36-30.5,16.06-.58.24-1.43-.73-2.56-1.33-13.54-7.1-64.27-34.44-65.2-34.95-.73-.4-.95,1.21-.95,2.28,0,3.42-1.43,18.2-1.92,25.27-.04.57.49.9.84,1.09,6,3.16,55.53,31.23,62.72,33.35,6.45,1.91,91.89-41.73,91.78-43.25-.1-1.33-119.3-70.18-125.05-76.49-6.55-7.18-3.94-12.15,2.91-20.52,3.79-4.62,7.01-9.89,7.1-16.17.24-16.63-15.34-33.01-35.58-25.79Zm24.31,31.64c-4.34,8.24-14.53,11.4-22.77,7.06-8.24-4.34-11.4-14.53-7.06-22.77,4.34-8.24,14.53-11.4,22.77-7.06,8.24,4.34,11.4,14.53,7.06,22.77Z"/>
    <path class="cls-1" d="m48.49,312.66c-1.78,9.24,3.25,21.25,11.63,25.58,10.96,5.66,16.12,3.17,24.76,2.91,1.54-.05,3.87-.33,5.41.71,13.15,8.84,19.82,17.98,31.23,11.31,10.3-6.02,83.35-45.88,95.41-52.17.75-.39,1.34-.23,1.5-.02.24.29.12,22.15-1.66,34.43-.09.62-1.36.86-2.45,1.53-13,8.06-62.32,37.85-63.23,38.39-.71.42.56,1.43,1.48,1.98,2.95,1.73,14.95,10.48,20.78,14.49.47.32,1.03.04,1.36-.17,5.77-3.56,55.11-31.96,60.6-37.07,4.93-4.59,10.76-100.35,9.39-101.02-1.2-.59-121.07,67.08-129.43,68.83-9.51,1.99-12.46-2.78-16.19-12.94-2.06-5.61-4.95-11.06-10.32-14.33-14.2-8.65-36.23-3.56-40.29,17.54Zm39.6-4.86c4.89,7.92,2.43,18.31-5.49,23.2-7.92,4.89-18.31,2.43-23.2-5.49-4.89-7.92-2.43-18.31,5.49-23.2,7.92-4.89,18.31-2.43,23.2,5.49Z"/>
    <path class="cls-1" d="m108.18,291.25c7.42,5.79,20.4,6.79,28.07,1.3,10.03-7.17,10.17-12.91,13.87-20.71.66-1.4,1.47-3.59,3.1-4.49,13.86-7.68,25.04-9.45,24.3-22.65-.67-11.91-2.87-95.1-2.98-108.71,0-.85.4-1.29.67-1.35.37-.08,19.77,9.98,29.89,17.16.51.36.15,1.6.25,2.88,1.25,15.24,5.3,72.72,5.37,73.78.05.83,1.53.15,2.44-.42,2.88-1.83,16.14-8.54,22.37-11.9.5-.27.5-.9.47-1.29-.54-6.76-3.35-63.62-5.39-70.83-1.84-6.47-84.43-55.29-85.65-54.38-1.07.8,4.56,138.34,2.31,146.57-2.56,9.37-8.15,9.83-18.89,8.52-5.93-.72-12.1-.63-17.46,2.66-14.17,8.7-19.67,30.63-2.74,43.86Zm13.71-37.47c9.28-.74,17.41,6.18,18.15,15.46.74,9.28-6.18,17.41-15.46,18.15-9.28.74-17.41-6.18-18.15-15.46s6.18-17.41,15.46-18.15Z"/>
    <path class="cls-1" d="m108.34,235.85c8.99-2.78,17.23-12.86,17.11-22.3-.16-12.33-4.78-15.72-9.07-23.22-.77-1.34-2.11-3.26-1.92-5.11,1.61-15.76,6.55-25.95-4.71-32.88-10.16-6.26-79.69-51.98-90.92-59.67-.7-.48-.83-1.07-.73-1.32.15-.35,19.49-10.52,31.16-14.72.59-.21,1.4.8,2.5,1.44,13.22,7.68,62.71,37.2,63.62,37.74.71.43,1-1.17,1.05-2.24.14-3.41,2.22-18.12,3.02-25.16.06-.57-.45-.92-.79-1.12-5.86-3.42-54.13-33.61-61.21-36.04-6.36-2.19-93.61,37.7-93.57,39.23.04,1.33,116.14,75.29,121.62,81.84,6.23,7.46,3.41,12.3-3.8,20.37-3.98,4.45-7.43,9.57-7.8,15.85-.96,16.6,13.9,33.64,34.43,27.31Zm-22.92-32.66c4.69-8.04,15.01-10.76,23.06-6.07,8.04,4.69,10.76,15.01,6.07,23.06-4.69,8.04-15.01,10.76-23.06,6.07-8.04-4.69-10.76-15.01-6.07-23.06Z"/>
    <path class="cls-1" d="m60.58,194.23c1.5-9.29-3.89-21.15-12.4-25.22-11.12-5.33-16.21-2.68-24.83-2.16-1.54.09-3.85.45-5.43-.54-13.41-8.43-20.35-17.37-31.56-10.36-10.11,6.33-81.93,48.38-93.79,55.04-.74.41-1.33.27-1.5.07-.25-.29-.79-22.13.62-34.46.07-.63,1.33-.9,2.4-1.61,12.75-8.45,61.14-39.72,62.04-40.29.7-.45-.6-1.42-1.54-1.93-3-1.64-15.26-10.02-21.21-13.86-.48-.31-1.03,0-1.36.21-5.66,3.74-54.12,33.62-59.45,38.89-4.78,4.73-7.71,100.63-6.32,101.26,1.21.55,118.98-70.72,127.28-72.73,9.44-2.28,12.54,2.4,16.58,12.44,2.23,5.54,5.29,10.91,10.75,14.01,14.46,8.22,36.32,2.46,39.74-18.76Zm-39.44,6.06c-5.13-7.77-2.99-18.23,4.78-23.36,7.77-5.13,18.23-2.99,23.36,4.78,5.13,7.77,2.99,18.23-4.78,23.36-7.77,5.13-18.23,2.99-23.36-4.78Z"/>
  </g>
  <g class="cls-2">
    <path class="cls-1" d="m334.11,14.06c-3.38-3.11-9.66-4.1-13.6-1.73-5.16,3.1-5.45,5.88-7.55,9.53-.38.65-.85,1.69-1.68,2.07-7.04,3.19-12.54,3.62-12.7,10.07-.14,5.82-2.32,46.36-2.79,52.98-.03.41-.25.61-.38.63-.18.02-9.22-5.63-13.87-9.51-.24-.2,0-.79,0-1.41-.01-7.46.26-35.57.27-36.09,0-.4-.74-.14-1.2.11-1.47.78-8.18,3.52-11.34,4.91-.25.11-.28.42-.28.61,0,3.31-.86,31.07-.14,34.66.64,3.22,38.9,30.18,39.53,29.79.55-.35,3.18-67.45,4.59-71.37,1.61-4.46,4.35-4.46,9.52-3.41,2.86.58,5.86.78,8.59-.61,7.23-3.68,10.76-14.13,3.04-21.22Zm-8.13,17.69c-4.54,0-8.22-3.68-8.22-8.22s3.68-8.22,8.22-8.22,8.23,3.68,8.23,8.22-3.68,8.22-8.23,8.22Z"/>
    <path class="cls-1" d="m328.89,42.68c-4.32,1.54-8.13,6.63-7.87,11.23.34,6.01,2.66,7.56,4.91,11.13.4.64,1.1,1.54,1.04,2.45-.45,7.72-2.64,12.79,2.99,15.93,5.08,2.83,39.94,23.65,45.58,27.16.35.22.43.5.38.63-.06.17-9.28,5.54-14.88,7.84-.28.12-.7-.36-1.25-.65-6.61-3.46-31.36-16.8-31.81-17.05-.36-.19-.46.59-.46,1.11,0,1.67-.7,8.88-.94,12.33-.02.28.24.44.41.53,2.93,1.54,27.09,15.23,30.6,16.27,3.15.93,44.83-20.36,44.78-21.1-.05-.65-58.2-34.24-61.01-37.32-3.19-3.5-1.92-5.93,1.42-10.01,1.85-2.26,3.42-4.82,3.46-7.89.12-8.11-7.49-16.1-17.36-12.58Zm11.86,15.43c-2.12,4.02-7.09,5.56-11.11,3.45-4.02-2.12-5.56-7.09-3.45-11.11,2.12-4.02,7.09-5.56,11.11-3.45,4.02,2.12,5.56,7.09,3.45,11.11Z"/>
    <path class="cls-1" d="m353.09,58.74c-.87,4.51,1.58,10.37,5.67,12.48,5.35,2.76,7.87,1.55,12.08,1.42.75-.02,1.89-.16,2.64.35,6.42,4.31,9.67,8.77,15.24,5.52,5.02-2.94,40.67-22.38,46.55-25.45.37-.19.65-.11.73-.01.12.14.06,10.8-.81,16.8-.04.3-.66.42-1.19.75-6.34,3.93-30.4,18.47-30.85,18.73-.35.21.27.7.72.96,1.44.84,7.29,5.11,10.14,7.07.23.16.5.02.67-.08,2.82-1.74,26.89-15.59,29.56-18.08,2.4-2.24,5.25-48.96,4.58-49.29-.58-.29-59.07,32.73-63.14,33.58-4.64.97-6.08-1.35-7.9-6.31-1-2.74-2.42-5.4-5.03-6.99-6.93-4.22-17.67-1.74-19.66,8.56Zm19.32-2.37c2.39,3.87,1.19,8.93-2.68,11.32-3.87,2.39-8.93,1.19-11.32-2.68-2.39-3.87-1.19-8.93,2.68-11.32,3.87-2.39,8.93-1.19,11.32,2.68Z"/>
    <path class="cls-1" d="m382.21,48.3c3.62,2.83,9.95,3.31,13.7.64,4.89-3.5,4.96-6.3,6.77-10.1.32-.68.72-1.75,1.51-2.19,6.76-3.75,12.22-4.61,11.85-11.05-.33-5.81-1.4-46.4-1.45-53.03,0-.41.2-.63.32-.66.18-.04,9.64,4.87,14.58,8.37.25.18.07.78.12,1.4.61,7.44,2.59,35.48,2.62,35.99.03.4.75.08,1.19-.21,1.41-.89,7.87-4.16,10.91-5.81.24-.13.24-.44.23-.63-.26-3.3-1.63-31.04-2.63-34.56-.9-3.16-41.19-26.97-41.79-26.53-.52.39,2.23,67.49,1.13,71.51-1.25,4.57-3.98,4.8-9.22,4.16-2.89-.35-5.91-.31-8.52,1.3-6.91,4.24-9.6,14.94-1.34,21.4Zm6.69-18.28c4.53-.36,8.49,3.01,8.86,7.54.36,4.53-3.01,8.49-7.54,8.86-4.53.36-8.49-3.01-8.86-7.54s3.01-8.49,7.54-8.86Z"/>
    <path class="cls-1" d="m382.29,21.27c4.39-1.35,8.41-6.28,8.35-10.88-.08-6.02-2.33-7.67-4.43-11.33-.37-.65-1.03-1.59-.94-2.49.79-7.69,3.2-12.66-2.3-16.04-4.96-3.05-38.88-25.36-44.36-29.11-.34-.23-.41-.52-.35-.64.07-.17,9.51-5.13,15.2-7.18.29-.1.68.39,1.22.7,6.45,3.75,30.6,18.15,31.04,18.41.35.21.49-.57.51-1.09.07-1.67,1.08-8.84,1.47-12.27.03-.28-.22-.45-.39-.55-2.86-1.67-26.41-16.4-29.86-17.58-3.1-1.07-45.67,18.39-45.65,19.14.02.65,56.66,36.73,59.33,39.93,3.04,3.64,1.67,6-1.85,9.94-1.94,2.17-3.63,4.67-3.8,7.73-.47,8.1,6.78,16.41,16.8,13.32Zm-11.18-15.93c2.29-3.92,7.33-5.25,11.25-2.96,3.92,2.29,5.25,7.33,2.96,11.25-2.29,3.92-7.33,5.25-11.25,2.96-3.92-2.29-5.25-7.33-2.96-11.25Z"/>
    <path class="cls-1" d="m358.98.96c.73-4.53-1.9-10.32-6.05-12.3-5.43-2.6-7.91-1.31-12.12-1.05-.75.05-1.88.22-2.65-.27-6.54-4.11-9.93-8.48-15.4-5.05-4.93,3.09-39.97,23.6-45.76,26.85-.36.2-.65.13-.73.03-.12-.14-.39-10.8.3-16.81.03-.3.65-.44,1.17-.78,6.22-4.12,29.83-19.38,30.27-19.66.34-.22-.29-.69-.75-.94-1.46-.8-7.45-4.89-10.35-6.76-.23-.15-.5,0-.66.1-2.76,1.82-26.4,16.4-29,18.97-2.33,2.31-3.76,49.09-3.08,49.4.59.27,58.05-34.5,62.1-35.48,4.61-1.11,6.12,1.17,8.09,6.07,1.09,2.7,2.58,5.32,5.24,6.84,7.05,4.01,17.72,1.2,19.39-9.15Zm-19.24,2.96c-2.5-3.79-1.46-8.89,2.33-11.4,3.79-2.5,8.89-1.46,11.4,2.33,2.5,3.79,1.46,8.89-2.33,11.4-3.79,2.5-8.89,1.46-11.4-2.33Z"/>
  </g>
  <g class="cls-2">
    <path class="cls-1" d="m595.15,297.61c-1.8-12.06-13.11-24.58-25.22-26.27-15.83-2.21-21.07,3.06-31.52,7.09-1.87.72-4.58,2.07-6.92,1.46-19.87-5.14-31.96-13.46-43.04-.39-10,11.79-82.15,91.93-94.19,104.81-.75.8-1.53.86-1.83.67-.42-.26-9.67-27.02-12.78-42.8-.16-.8,1.29-1.64,2.33-2.93,12.42-15.44,59.9-73.07,60.78-74.13.69-.83-1.3-1.51-2.66-1.78-4.35-.85-22.78-6.38-31.64-8.78-.71-.19-1.27.4-1.59.8-5.52,6.84-53.62,62.78-58.13,71.38-4.05,7.72,30.02,127.28,31.98,127.52,1.72.21,119.13-134.08,128.59-139.81,10.77-6.52,16.43-1.97,25.36,8.85,4.93,5.97,10.81,11.39,18.78,13.08,21.08,4.47,45.81-11.23,41.7-38.78Zm-46.31,22.98c-9.39-7.58-10.85-21.33-3.27-30.72s21.33-10.85,30.72-3.27c9.39,7.58,10.85,21.33,3.27,30.72s-21.33,10.85-30.72,3.27Z"/>
    <path class="cls-1" d="m637.4,448.62c2.76,11.88,15.04,23.45,27.24,24.17,15.95.93,20.76-4.73,30.85-9.59,1.8-.87,4.4-2.43,6.78-2.01,20.22,3.54,32.93,10.86,42.93-3.05,9.02-12.55,74.54-98.21,85.5-112.01.68-.86,1.46-.98,1.77-.82.44.22,11.8,26.16,16.16,41.64.22.78-1.16,1.74-2.09,3.1-11.15,16.38-53.86,77.63-54.65,78.75-.62.88,1.42,1.4,2.8,1.56,4.4.5,23.22,4.53,32.24,6.22.73.14,1.24-.5,1.53-.92,4.96-7.26,48.43-66.86,52.23-75.8,3.42-8.02-40.1-124.48-42.07-124.56-1.73-.07-108.03,143.17-117,149.65-10.21,7.36-16.22,3.28-25.98-6.79-5.39-5.56-11.69-10.49-19.76-11.54-21.37-2.77-44.77,14.86-38.47,41.99Zm44.33-26.61c9.96,6.81,12.52,20.4,5.72,30.36-6.81,9.96-20.4,12.52-30.36,5.72-9.96-6.81-12.52-20.4-5.72-30.36,6.81-9.96,20.4-12.52,30.36-5.72Z"/>
    <path class="cls-1" d="m682.67,392.9c11.32,4.52,27.84,1.06,35.4-8.55,9.88-12.56,7.98-19.74,9.76-30.79.32-1.98.53-5,2.23-6.71,14.46-14.57,27.73-20.82,22.03-36.98-5.15-14.58-38.01-117.28-43.07-134.17-.32-1.05.03-1.76.34-1.92.43-.23,28.21,5.26,43.4,10.53.77.27.76,1.94,1.35,3.49,7.08,18.51,32.94,88.56,33.41,89.85.37,1.01,1.96-.36,2.88-1.41,2.92-3.33,16.99-16.46,23.52-22.91.53-.52.3-1.3.12-1.78-3.12-8.22-27.21-77.95-32.36-86.17-4.63-7.39-125.07-38.21-126.26-36.63-1.04,1.38,55.78,170.46,55.97,181.52.21,12.59-6.58,15.18-20.42,17.45-7.64,1.25-15.29,3.6-20.76,9.63-14.48,15.96-13.38,45.23,12.48,55.56Zm3.49-51.58c11.28-4.29,23.9,1.38,28.18,12.66,4.29,11.28-1.38,23.9-12.66,28.18-11.28,4.29-23.9-1.38-28.18-12.66-4.29-11.28,1.38-23.9,12.66-28.18Z"/>
    <path class="cls-1" d="m668.41,312.06c9.08-8.15,13.29-24.49,8.03-35.52-6.88-14.43-14.16-15.9-23.28-22.4-1.63-1.16-4.25-2.69-5.03-4.97-6.65-19.42-6.37-34.09-23.38-36.14-15.35-1.85-121.98-17.93-139.36-20.87-1.08-.18-1.56-.81-1.57-1.16-.02-.49,17.22-22.95,28.68-34.24.58-.57,2.08.18,3.72.33,19.73,1.86,93.98,9.74,95.35,9.89,1.07.12.54-1.92.02-3.2-1.69-4.09-7.23-22.52-10.1-31.24-.23-.7-1.03-.84-1.54-.89-8.75-.84-81.93-10.17-91.59-9.2-8.68.88-89.7,95.17-88.81,96.93.77,1.55,177.53,25.57,187.52,30.31,11.38,5.39,10.69,12.63,6.58,26.04-2.27,7.4-3.55,15.3-.57,22.88,7.88,20.06,34.61,32.05,55.34,13.45Zm-44.69-26c1.16-12.01,11.83-20.81,23.84-19.65,12.01,1.16,20.81,11.83,19.65,23.84-1.16,12.01-11.83,20.81-23.84,19.65-12.01-1.16-20.81-11.83-19.65-23.84Z"/>
  </g>
  <g class="cls-2">
    <path class="cls-1" d="m1056.15-27.14c-6.95-8.75-21.66-13.5-32.04-9.3-13.57,5.49-15.32,12.07-21.76,20.05-1.15,1.43-2.69,3.74-4.82,4.33-18.13,5.02-31.52,3.95-34.34,19.39-2.54,13.93-23.11,110.57-26.76,126.3-.23.98-.83,1.38-1.14,1.37-.45-.01-20.04-17.01-29.73-28.11-.49-.56.28-1.89.51-3.39,2.79-17.94,14.08-85.41,14.29-86.65.17-.97-1.72-.6-2.93-.19-3.84,1.32-21,5.37-29.13,7.52-.65.17-.83.9-.9,1.36-1.25,7.96-13.81,74.37-13.45,83.25.32,7.98,82.09,87.27,83.76,86.56,1.46-.62,33.16-160.94,38.04-169.82,5.56-10.11,12.14-9.08,24.17-4.59,6.64,2.48,13.8,4.09,20.89,1.78,18.78-6.11,31.21-29.89,15.34-49.86Zm-26.23,39.44c-10.92-1.72-18.38-11.96-16.66-22.88,1.72-10.92,11.96-18.38,22.88-16.66,10.92,1.72,18.38,11.96,16.66,22.88-1.72,10.92-11.96,18.38-22.88,16.66Z"/>
    <path class="cls-1" d="m1038.14,41.21c-11.07,1.54-22.64,11.79-24.29,22.87-2.16,14.48,2.61,19.33,6.21,28.94.64,1.72,1.85,4.22,1.28,6.35-4.89,18.16-12.62,29.16-.75,39.43,10.71,9.27,83.48,76.09,95.18,87.23.73.69.77,1.41.6,1.68-.24.38-24.84,8.62-39.32,11.32-.73.14-1.49-1.2-2.66-2.16-14.03-11.52-66.41-55.53-67.37-56.34-.75-.64-1.4,1.18-1.65,2.42-.82,3.97-6.05,20.81-8.32,28.91-.18.65.35,1.17.71,1.47,6.22,5.12,57.03,49.69,64.87,53.89,7.04,3.78,116.88-26.36,117.11-28.15.2-1.57-121.76-110.34-126.93-119.06-5.88-9.92-1.66-15.07,8.33-23.15,5.51-4.46,10.53-9.8,12.15-17.08,4.28-19.27-9.88-42.07-35.15-38.55Zm20.63,42.64c-7.03,8.53-19.64,9.75-28.17,2.72-8.53-7.03-9.75-19.64-2.72-28.17,7.03-8.53,19.64-9.75,28.17-2.72,8.53,7.03,9.75,19.64,2.72,28.17Z"/>
    <path class="cls-1" d="m1085.07,100.08c-3.67,10.55.19,25.53,9.29,32.04,11.9,8.52,18.4,6.48,28.59,7.65,1.82.21,4.6.27,6.24,1.76,13.94,12.63,20.21,24.51,34.76,18.62,13.13-5.31,105.77-39.66,121.01-44.99.95-.33,1.61-.04,1.77.23.23.38-3.64,26.04-7.84,40.16-.21.72-1.75.78-3.13,1.38-16.65,7.24-79.68,33.82-80.85,34.3-.91.38.41,1.78,1.41,2.58,3.17,2.54,15.77,14.86,21.94,20.58.5.46,1.2.22,1.63.03,7.39-3.2,70.21-28.13,77.53-33.2,6.57-4.55,29.78-116.05,28.29-117.08-1.3-.9-153.7,58.13-163.81,58.75-11.51.72-14.17-5.39-16.81-17.96-1.46-6.94-3.93-13.84-9.67-18.6-15.21-12.59-41.95-10.37-50.33,13.73Zm47.36,1.05c4.39,10.14-.27,21.93-10.41,26.32-10.14,4.39-21.93-.27-26.32-10.41-4.39-10.14.27-21.93,10.41-26.32,10.14-4.39,21.93.27,26.32,10.41Z"/>
    <path class="cls-1" d="m1147.38,79.03c6.56,9.04,21.05,14.43,31.61,10.68,13.8-4.9,15.83-11.4,22.61-19.09,1.21-1.38,2.85-3.62,5.01-4.11,18.33-4.23,31.67-2.58,35.14-17.88,3.14-13.81,27.88-109.46,32.22-125.02.27-.97.88-1.34,1.2-1.32.45.03,19.29,17.87,28.48,29.38.47.58-.36,1.88-.66,3.36-3.56,17.8-17.77,84.72-18.04,85.95-.21.96,1.7.68,2.92.32,3.89-1.15,21.21-4.45,29.43-6.25.66-.14.87-.86.96-1.32,1.6-7.89,17.02-73.7,17.05-82.59.02-7.99-78.23-90.75-79.92-90.11-1.48.56-40.11,159.35-45.37,168.01-5.99,9.86-12.52,8.55-24.35,3.54-6.53-2.77-13.61-4.69-20.79-2.69-19.02,5.28-32.48,28.5-17.49,49.15Zm27.92-38.26c10.83,2.19,17.84,12.75,15.65,23.58-2.19,10.83-12.75,17.84-23.58,15.65-10.83-2.19-17.84-12.75-15.65-23.58,2.19-10.83,12.75-17.84,23.58-15.65Z"/>
    <path class="cls-1" d="m1175.85,9.42c11.01-1.88,22.27-12.47,23.59-23.6,1.72-14.54-3.2-19.24-7.09-28.73-.7-1.7-1.98-4.16-1.47-6.31,4.34-18.3,11.73-29.53-.45-39.43-10.99-8.94-85.75-73.52-97.78-84.3-.75-.67-.81-1.39-.65-1.66.23-.39,24.57-9.37,38.96-12.51.73-.16,1.52,1.15,2.72,2.08,14.37,11.09,68.06,53.49,69.04,54.27.77.62,1.36-1.22,1.58-2.47.7-4,5.41-20.99,7.44-29.15.16-.66-.39-1.16-.76-1.45-6.37-4.93-58.51-47.93-66.47-51.9-7.15-3.56-116.03,29.89-116.21,31.69-.16,1.58,125.05,106.6,130.48,115.16,6.18,9.74,2.11,15.01-7.63,23.39-5.38,4.63-10.23,10.12-11.63,17.44-3.7,19.39,11.15,41.75,36.3,37.47Zm-21.92-41.99c6.77-8.74,19.34-10.34,28.08-3.57,8.74,6.77,10.34,19.34,3.57,28.08-6.77,8.74-19.34,10.34-28.08,3.57-8.74-6.77-10.34-19.34-3.57-28.08Z"/>
  </g>
</svg>