<?xml version="1.0" encoding="UTF-8"?>
<svg id="Capa_1" data-name="Capa 1" xmlns="http://www.w3.org/2000/svg" viewBox="0 0 800 800">
  <defs>
    <style>
      .cls-1 {
        fill: #fff;
        stroke-width: 0px;
      }
    </style>
  </defs>
  <path class="cls-1" d="m408.63,719c-18.9,10.9-43.1,4.4-54-14.5l-67.5-116.9L26.43,674.4c-8.9,3-18.7-.7-23.3-8.8-4.7-8.1-3-18.4,4-24.6l205.5-182.4-67.5-116.9c-10.9-18.9-4.4-43,14.5-53.9,52-30,115.9-26.8,174.2,2.4l102-58.9-18.3-31.8c-10.9-18.9-4.4-43,14.5-53.9l111.8-64.6c18.9-10.9,43-4.4,53.9,14.4l38.1,66,120.3,208.4,38.1,65.9c10.9,18.9,4.4,43-14.5,53.9l-111.9,64.6c-18.9,10.9-43,4.5-53.9-14.5l-18.3-31.7-102,58.9c-3.9,65.1-33,122.1-85,152.1Z"/>
</svg>