<?xml version="1.0" encoding="UTF-8"?>
<svg id="Capa_1" data-name="Capa 1" xmlns="http://www.w3.org/2000/svg" viewBox="0 0 800 800">
  <defs>
    <style>
      .cls-1 {
        fill: #fff;
        stroke-width: 0px;
      }
    </style>
  </defs>
  <g>
    <path class="cls-1" d="m337.39,288.29l159.73,276.67-3.54,2.05c-3.9,65.1-33,122.1-85,152.1-18.9,10.9-43.1,4.4-54-14.5l-67.5-116.9L26.48,674.51c-8.9,3-18.7-.7-23.3-8.8-4.7-8.1-3-18.4,4-24.6l205.5-182.4-67.5-116.9c-10.9-18.9-4.4-43,14.5-53.9,52-30,115.9-26.8,174.2,2.4l3.51-2.02Z"/>
    <path class="cls-1" d="m779.68,489.71l-111.9,64.6c-18.9,10.9-43,4.5-53.9-14.5l-18.3-31.7-24.44,14.11-159.74-276.68,24.48-14.13-18.3-31.8c-10.9-18.9-4.4-43,14.5-53.9l111.7-64.6c18.9-10.9,43-4.4,53.9,14.4l38.1,66,120.3,208.4,38.1,65.9c10.9,18.9,4.4,43-14.5,53.9Z"/>
  </g>
  <rect class="cls-1" x="421.41" y="-54.59" width="62.16" height="909.18" rx="31.08" ry="31.08" transform="translate(-139.38 279.84) rotate(-30)"/>
</svg>